<svg width="150" height="150" viewBox="0 0 150 150" fill="none" xmlns="http://www.w3.org/2000/svg">
    <circle cx="75" cy="75" r="75" fill="#F0F0F0"/>
    <circle cx="75" cy="75" r="72" fill="#FFB5A7"/>
    <ellipse cx="72.5" cy="82" rx="36.5" ry="25" fill="#716458"/>
    <path d="M70.7595 22.7251L78.7021 73.8531L44.6595 67.4011L70.7595 22.7251Z" fill="#716458"/>
    <path d="M68.9832 26.9783L73.1212 68.1547L48.6034 62.9961L68.9832 26.9783Z" fill="#F3D0C1"/>
    <path d="M119.277 36.2121L107.946 86.5389L79.2808 68.7921L119.277 36.2121Z" fill="#716458"/>
    <path d="M117.247 40.0444L107.947 80.2726L86.843 67.9796L117.247 40.0444Z" fill="#F3D0C1"/>
    <ellipse cx="72.5" cy="82" rx="36.5" ry="25" fill="#716458"/>
    <path d="M40.5 84.5C38.5 84.5 37.5 86 37 86C37 86 36.5 85 36.5 84C36.5 83.1056 38.5 82.6667 40 82.5C42 82.9 41.1667 84 40.5 84.5Z" fill="black" stroke="#332E28"/>
    <ellipse cx="52.9353" cy="79.9573" rx="12.2102" ry="10.479" transform="rotate(61.6784 52.9353 79.9573)" fill="#DFDFDF"/>
    <ellipse cx="84.049" cy="86.8942" rx="13.916" ry="11.0364" transform="rotate(-13.0532 84.049 86.8942)" fill="#F0F0F0"/>
    <rect x="53.132" y="61.5232" width="26.99" height="9" transform="rotate(49.2752 53.132 61.5232)" fill="#716458"/>
    <rect x="98.3383" y="79.6989" width="29" height="9" transform="rotate(165.137 98.3383 79.6989)" fill="#716458"/>
    <path d="M52 98.5C52.8 97.3 57.6667 95.8333 60 95L62 98L64.5 96.5L74 98.5C77.5 101.5 82.1 107.4 72.5 107C62.9 106.6 54.8333 103.833 52 102.5C51.6667 101.667 51.2 99.7 52 98.5Z" fill="#F3D0C1" stroke="#F3D0C1"/>
    <path d="M62.3333 97L61.7778 100.75M61.7778 100.75L59 101.5M61.7778 100.75L64 103" stroke="black"/>
    <path d="M43 88.5781C39.8 89.7781 40 92.5 39.5 92L39 91L38.75 90.5L38 89.0781C38 88.5781 38.6 87.4781 41 87.0781C43.4 86.6781 43.3333 87.9114 43 88.5781Z" fill="black" stroke="#332E28"/>
    <path d="M68 64C68 62 70.6667 59 72 57.5H75.5839C75.7516 57.5 75.8448 57.694 75.74 57.8249L70 65C69.3333 65.5 68 66 68 64Z" fill="black" stroke="#332E28"/>
    <path d="M80 66C80 64 83.6667 60.5 85 59L88.0299 59.8657C88.2451 59.9272 88.3196 60.1942 88.1673 60.3583L82 67C81.3333 67.5 80 68 80 66Z" fill="black"/>
    <path d="M80 66C80 64 83.6667 60.5 85 59L88.0299 59.8657C88.2451 59.9272 88.3196 60.1942 88.1673 60.3583L82 67C81.3333 67.5 80 68 80 66Z" stroke="#332E28"/>
    <path d="M80 66C80 64 83.6667 60.5 85 59L88.0299 59.8657C88.2451 59.9272 88.3196 60.1942 88.1673 60.3583L82 67C81.3333 67.5 80 68 80 66Z" stroke="black" stroke-opacity="0.2"/>
    <path d="M75.0046 63.2106C75.0288 62.8272 77.1475 59.7638 78.4551 58.112C78.5116 58.0405 78.5972 58 78.6883 58H79.5841H79.9381H80.5L81.5302 58.3434C81.744 58.4147 81.8058 58.6874 81.6436 58.8439L76.3985 63.9053C74.9826 64.2527 74.9826 63.558 75.0046 63.2106Z" fill="black" stroke="#332E28"/>
    <path d="M93 97C91.4 96.6 91.5 97.5 91.5 98L93 100L93.5 102L94.5 101.5L96 100.5C95.3333 99.8333 94.5 98 93 97Z" fill="black" stroke="#332E28"/>
    <path d="M96 95.5C96 96 98.5 97 99 98.5L101 97L97.5 95C96.5 94.5 96 95 96 95.5Z" fill="black" stroke="#332E28"/>
    <path d="M62.3333 97L61 95L65 96L62.3333 97Z" fill="#FFB5A7" stroke="#FFB5A7"/>
    <path d="M91.1791 81.6381C91.4188 82.5398 91.4438 83.4891 91.2524 84.4319C91.0611 85.3747 90.6573 86.2925 90.064 87.1329C89.4708 87.9733 88.6997 88.7198 87.7948 89.3299C86.8899 89.9399 85.8689 90.4016 84.7902 90.6884C83.7114 90.9752 82.596 91.0817 81.5076 91.0016C80.4192 90.9216 79.3792 90.6566 78.4469 90.2218C77.5145 89.7871 76.7082 89.1911 76.0739 88.4678C75.4396 87.7445 74.9897 86.9082 74.7499 86.0065L82.9645 83.8223L91.1791 81.6381Z" fill="black"/>
    <path d="M62.2601 86.005C61.5554 86.606 60.7425 87.0663 59.8679 87.3596C58.9933 87.6529 58.0742 87.7733 57.1629 87.7142C56.2516 87.655 55.3661 87.4173 54.5569 87.0148C53.7477 86.6122 53.0307 86.0525 52.4467 85.3678C51.8628 84.6831 51.4234 83.8867 51.1535 83.0241C50.8837 82.1615 50.7889 81.2495 50.8743 80.3404C50.9597 79.4312 51.2238 78.5426 51.6514 77.7253C52.0791 76.9079 52.6619 76.1779 53.3667 75.5769L57.8134 80.7909L62.2601 86.005Z" fill="black"/>
    <circle cx="60" cy="49" r="1" fill="#FFB5A7"/>
</svg>